<svg width="16" height="16" viewBox="0 0 16 16" fill="none" xmlns="http://www.w3.org/2000/svg">
<path d="M12.3218 11.178C11.4106 11.3968 10.4593 11.3862 9.55323 11.1472C8.64711 10.9081 7.81442 10.4481 7.12973 9.80825C6.44503 9.16841 5.92971 8.36875 5.62991 7.48088C5.3301 6.593 5.25517 5.64464 5.41183 4.7207C5.38836 4.7441 5.36318 4.76572 5.3365 4.78537C5.14983 4.92737 4.9165 4.98004 4.44983 5.08537L4.0265 5.18137C2.3865 5.5527 1.5665 5.73804 1.37116 6.36537C1.1765 6.99204 1.73516 7.64604 2.85316 8.95337L3.1425 9.29137C3.45983 9.6627 3.61916 9.8487 3.6905 10.078C3.76183 10.308 3.73783 10.556 3.68983 11.0514L3.64583 11.5027C3.47716 13.2474 3.3925 14.1194 3.90316 14.5067C4.41383 14.894 5.18183 14.5414 6.7165 13.834L7.1145 13.6514C7.5505 13.45 7.7685 13.35 7.99983 13.35C8.23116 13.35 8.44916 13.45 8.88583 13.6514L9.2825 13.834C10.8178 14.5407 11.5858 14.894 12.0958 14.5074C12.6072 14.1194 12.5225 13.2474 12.3538 11.5027L12.3218 11.178Z" fill="#345773"/>
<path opacity="0.5" d="M6.1018 3.60501L5.88313 3.99701C5.64313 4.42767 5.52313 4.64301 5.33647 4.78501C5.36313 4.76501 5.38824 4.74345 5.4118 4.72034C5.2551 5.64435 5.33003 6.59279 5.62986 7.48073C5.9297 8.36867 6.44509 9.16838 7.12987 9.80824C7.81465 10.4481 8.64743 10.9081 9.55365 11.1471C10.4599 11.3861 11.4112 11.3966 12.3225 11.1777L12.3091 11.051C12.2618 10.5557 12.2378 10.3077 12.3091 10.0777C12.3805 9.84834 12.5391 9.66234 12.8571 9.29101L13.1465 8.95301C14.2645 7.64634 14.8231 6.99234 14.6278 6.36501C14.4331 5.73767 13.6131 5.55167 11.9731 5.18101L11.5491 5.08501C11.0831 4.97967 10.8498 4.92701 10.6625 4.78501C10.4758 4.64301 10.3558 4.42767 10.1158 3.99701L9.8978 3.60501C9.05313 2.09034 8.63113 1.33301 7.9998 1.33301C7.36847 1.33301 6.94647 2.09034 6.1018 3.60501Z" fill="#345773"/>
</svg>
